<mxfile host="app.diagrams.net" modified="2021-01-29T08:04:37.891Z" agent="5.0 (Macintosh; Intel Mac OS X 11_1_0) AppleWebKit/537.36 (KHTML, like Gecko) Chrome/88.0.4324.96 Safari/537.36" etag="ktwK8RyvTg_wjLB7laPo" version="13.6.9" type="github">
  <diagram id="UMM35fQ36YWvx5gJnMB5" name="Page-1">
    <mxGraphModel dx="2703" dy="1754" grid="1" gridSize="10" guides="1" tooltips="1" connect="1" arrows="1" fold="1" page="1" pageScale="1" pageWidth="850" pageHeight="1100" math="0" shadow="0">
      <root>
        <mxCell id="0" />
        <mxCell id="1" parent="0" />
        <mxCell id="J3TzsPr2HFtsVpl8jHRT-20" value="TransactionDetail Screen" style="rounded=0;whiteSpace=wrap;html=1;" vertex="1" parent="1">
          <mxGeometry x="120" y="160" width="120" height="60" as="geometry" />
        </mxCell>
        <mxCell id="J3TzsPr2HFtsVpl8jHRT-21" value="TransactionDetail&lt;br&gt;Bloc" style="ellipse;whiteSpace=wrap;html=1;" vertex="1" parent="1">
          <mxGeometry x="410" y="150" width="120" height="80" as="geometry" />
        </mxCell>
        <mxCell id="J3TzsPr2HFtsVpl8jHRT-22" value="" style="endArrow=none;dashed=1;html=1;entryX=0.5;entryY=1;entryDx=0;entryDy=0;" edge="1" parent="1" target="J3TzsPr2HFtsVpl8jHRT-20">
          <mxGeometry width="50" height="50" relative="1" as="geometry">
            <mxPoint x="180" y="790" as="sourcePoint" />
            <mxPoint x="710" y="430" as="targetPoint" />
          </mxGeometry>
        </mxCell>
        <mxCell id="J3TzsPr2HFtsVpl8jHRT-23" value="" style="endArrow=none;dashed=1;html=1;" edge="1" parent="1" source="J3TzsPr2HFtsVpl8jHRT-24" target="J3TzsPr2HFtsVpl8jHRT-21">
          <mxGeometry width="50" height="50" relative="1" as="geometry">
            <mxPoint x="469" y="900" as="sourcePoint" />
            <mxPoint x="469" y="230" as="targetPoint" />
          </mxGeometry>
        </mxCell>
        <mxCell id="J3TzsPr2HFtsVpl8jHRT-24" value="" style="html=1;points=[];perimeter=orthogonalPerimeter;" vertex="1" parent="1">
          <mxGeometry x="465" y="270" width="10" height="80" as="geometry" />
        </mxCell>
        <mxCell id="J3TzsPr2HFtsVpl8jHRT-25" value="" style="endArrow=none;dashed=1;html=1;" edge="1" parent="1" target="J3TzsPr2HFtsVpl8jHRT-24">
          <mxGeometry width="50" height="50" relative="1" as="geometry">
            <mxPoint x="470" y="400" as="sourcePoint" />
            <mxPoint x="470" y="230" as="targetPoint" />
          </mxGeometry>
        </mxCell>
        <mxCell id="J3TzsPr2HFtsVpl8jHRT-27" value="dispatch event&lt;br&gt;&amp;nbsp;UpdateTransaction(&amp;lt;Transactions&amp;gt;)" style="html=1;verticalAlign=bottom;endArrow=block;exitX=-0.367;exitY=1.004;exitDx=0;exitDy=0;exitPerimeter=0;" edge="1" parent="1" source="J3TzsPr2HFtsVpl8jHRT-24">
          <mxGeometry width="80" relative="1" as="geometry">
            <mxPoint x="540" y="390" as="sourcePoint" />
            <mxPoint x="180" y="350" as="targetPoint" />
          </mxGeometry>
        </mxCell>
      </root>
    </mxGraphModel>
  </diagram>
</mxfile>
